<svg width="257" height="90" viewBox="0 0 257 90" fill="none" xmlns="http://www.w3.org/2000/svg">
<path d="M98.56 24.4V54H94V24.4H98.56ZM114.107 54.36C112.027 54.36 110.147 53.8933 108.467 52.96C106.787 52 105.467 50.6667 104.507 48.96C103.547 47.2267 103.067 45.2267 103.067 42.96C103.067 40.72 103.56 38.7333 104.547 37C105.534 35.2667 106.88 33.9333 108.587 33C110.294 32.0667 112.2 31.6 114.307 31.6C116.414 31.6 118.32 32.0667 120.027 33C121.734 33.9333 123.08 35.2667 124.067 37C125.054 38.7333 125.547 40.72 125.547 42.96C125.547 45.2 125.04 47.1867 124.027 48.92C123.014 50.6533 121.627 52 119.867 52.96C118.134 53.8933 116.214 54.36 114.107 54.36ZM114.107 50.4C115.28 50.4 116.374 50.12 117.387 49.56C118.427 49 119.267 48.16 119.907 47.04C120.547 45.92 120.867 44.56 120.867 42.96C120.867 41.36 120.56 40.0133 119.947 38.92C119.334 37.8 118.52 36.96 117.507 36.4C116.494 35.84 115.4 35.56 114.227 35.56C113.054 35.56 111.96 35.84 110.947 36.4C109.96 36.96 109.174 37.8 108.587 38.92C108 40.0133 107.707 41.36 107.707 42.96C107.707 45.3333 108.307 47.1733 109.507 48.48C110.734 49.76 112.267 50.4 114.107 50.4ZM134.615 24.4V54H130.055V24.4H134.615ZM139.082 42.96C139.082 40.6933 139.535 38.7067 140.442 37C141.375 35.2667 142.655 33.9333 144.282 33C145.908 32.0667 147.775 31.6 149.882 31.6C152.548 31.6 154.748 32.24 156.482 33.52C158.242 34.7733 159.428 36.5733 160.042 38.92H155.122C154.722 37.8267 154.082 36.9733 153.202 36.36C152.322 35.7467 151.215 35.44 149.882 35.44C148.015 35.44 146.522 36.1067 145.402 37.44C144.308 38.7467 143.762 40.5867 143.762 42.96C143.762 45.3333 144.308 47.1867 145.402 48.52C146.522 49.8533 148.015 50.52 149.882 50.52C152.522 50.52 154.268 49.36 155.122 47.04H160.042C159.402 49.28 158.202 51.0667 156.442 52.4C154.682 53.7067 152.495 54.36 149.882 54.36C147.775 54.36 145.908 53.8933 144.282 52.96C142.655 52 141.375 50.6667 140.442 48.96C139.535 47.2267 139.082 45.2267 139.082 42.96ZM169.146 24.4V54H164.586V24.4H169.146ZM184.693 54.36C182.613 54.36 180.733 53.8933 179.053 52.96C177.373 52 176.053 50.6667 175.093 48.96C174.133 47.2267 173.653 45.2267 173.653 42.96C173.653 40.72 174.146 38.7333 175.133 37C176.119 35.2667 177.466 33.9333 179.173 33C180.879 32.0667 182.786 31.6 184.893 31.6C186.999 31.6 188.906 32.0667 190.613 33C192.319 33.9333 193.666 35.2667 194.653 37C195.639 38.7333 196.133 40.72 196.133 42.96C196.133 45.2 195.626 47.1867 194.613 48.92C193.599 50.6533 192.213 52 190.453 52.96C188.719 53.8933 186.799 54.36 184.693 54.36ZM184.693 50.4C185.866 50.4 186.959 50.12 187.973 49.56C189.013 49 189.853 48.16 190.493 47.04C191.133 45.92 191.453 44.56 191.453 42.96C191.453 41.36 191.146 40.0133 190.533 38.92C189.919 37.8 189.106 36.96 188.093 36.4C187.079 35.84 185.986 35.56 184.813 35.56C183.639 35.56 182.546 35.84 181.533 36.4C180.546 36.96 179.759 37.8 179.173 38.92C178.586 40.0133 178.293 41.36 178.293 42.96C178.293 45.3333 178.893 47.1733 180.093 48.48C181.319 49.76 182.853 50.4 184.693 50.4ZM220.601 31.96V54H216.041V51.4C215.321 52.3067 214.374 53.0267 213.201 53.56C212.054 54.0667 210.827 54.32 209.521 54.32C207.787 54.32 206.227 53.96 204.841 53.24C203.481 52.52 202.401 51.4533 201.601 50.04C200.827 48.6267 200.441 46.92 200.441 44.92V31.96H204.961V44.24C204.961 46.2133 205.454 47.7333 206.441 48.8C207.427 49.84 208.774 50.36 210.481 50.36C212.187 50.36 213.534 49.84 214.521 48.8C215.534 47.7333 216.041 46.2133 216.041 44.24V31.96H220.601ZM225.097 42.88C225.097 40.6667 225.551 38.7067 226.457 37C227.391 35.2933 228.644 33.9733 230.217 33.04C231.817 32.08 233.591 31.6 235.537 31.6C236.977 31.6 238.391 31.92 239.777 32.56C241.191 33.1733 242.311 34 243.137 35.04V24.4H247.737V54H243.137V50.68C242.391 51.7467 241.351 52.6267 240.017 53.32C238.711 54.0133 237.204 54.36 235.497 54.36C233.577 54.36 231.817 53.88 230.217 52.92C228.644 51.9333 227.391 50.5733 226.457 48.84C225.551 47.08 225.097 45.0933 225.097 42.88ZM243.137 42.96C243.137 41.44 242.817 40.12 242.177 39C241.564 37.88 240.751 37.0267 239.737 36.44C238.724 35.8533 237.631 35.56 236.457 35.56C235.284 35.56 234.191 35.8533 233.177 36.44C232.164 37 231.337 37.84 230.697 38.96C230.084 40.0533 229.777 41.36 229.777 42.88C229.777 44.4 230.084 45.7333 230.697 46.88C231.337 48.0267 232.164 48.9067 233.177 49.52C234.217 50.1067 235.311 50.4 236.457 50.4C237.631 50.4 238.724 50.1067 239.737 49.52C240.751 48.9333 241.564 48.08 242.177 46.96C242.817 45.8133 243.137 44.48 243.137 42.96Z" fill="white"/>
<circle cx="58.6736" cy="38.9867" r="20.0836" transform="rotate(-28.2865 58.6736 38.9867)" fill="white"/>
<path d="M39.9218 29.1119C41.5322 18.9642 52.3622 13.1361 61.7185 17.3822V17.3822C73.4432 22.7033 73.9997 39.15 62.6616 45.2515V45.2515C51.3236 51.353 37.9039 41.8284 39.9218 29.1119V29.1119Z" fill="#3C80E7"/>
</svg>
